<mxfile host="app.diagrams.net" modified="2024-04-07T12:19:57.604Z" agent="Mozilla/5.0 (Windows NT 10.0; Win64; x64) AppleWebKit/537.36 (KHTML, like Gecko) Chrome/123.0.0.0 Safari/537.36" etag="_lyiiP4cR3oo5oX6ssqw" version="24.2.2" type="device">
  <diagram id="R2lEEEUBdFMjLlhIrx00" name="Page-1">
    <mxGraphModel dx="1050" dy="530" grid="1" gridSize="10" guides="1" tooltips="1" connect="1" arrows="1" fold="1" page="1" pageScale="1" pageWidth="850" pageHeight="1100" math="0" shadow="0" extFonts="Permanent Marker^https://fonts.googleapis.com/css?family=Permanent+Marker">
      <root>
        <mxCell id="0" />
        <mxCell id="1" parent="0" />
        <mxCell id="s7leAN4v9x_5SHNfB_ql-9" style="edgeStyle=orthogonalEdgeStyle;rounded=0;orthogonalLoop=1;jettySize=auto;html=1;" edge="1" parent="1" source="s7leAN4v9x_5SHNfB_ql-1" target="s7leAN4v9x_5SHNfB_ql-8">
          <mxGeometry relative="1" as="geometry" />
        </mxCell>
        <mxCell id="s7leAN4v9x_5SHNfB_ql-1" value="Redis" style="shape=cylinder3;whiteSpace=wrap;html=1;boundedLbl=1;backgroundOutline=1;size=15;" vertex="1" parent="1">
          <mxGeometry x="425" y="260" width="90" height="180" as="geometry" />
        </mxCell>
        <mxCell id="s7leAN4v9x_5SHNfB_ql-13" style="edgeStyle=orthogonalEdgeStyle;rounded=0;orthogonalLoop=1;jettySize=auto;html=1;entryX=0.5;entryY=0;entryDx=0;entryDy=0;" edge="1" parent="1" source="s7leAN4v9x_5SHNfB_ql-2" target="s7leAN4v9x_5SHNfB_ql-12">
          <mxGeometry relative="1" as="geometry" />
        </mxCell>
        <mxCell id="s7leAN4v9x_5SHNfB_ql-2" value="DB" style="shape=cylinder3;whiteSpace=wrap;html=1;boundedLbl=1;backgroundOutline=1;size=15;" vertex="1" parent="1">
          <mxGeometry x="40" y="260" width="320" height="200" as="geometry" />
        </mxCell>
        <mxCell id="s7leAN4v9x_5SHNfB_ql-5" style="edgeStyle=orthogonalEdgeStyle;rounded=0;orthogonalLoop=1;jettySize=auto;html=1;" edge="1" parent="1" source="s7leAN4v9x_5SHNfB_ql-4" target="s7leAN4v9x_5SHNfB_ql-6">
          <mxGeometry relative="1" as="geometry">
            <mxPoint x="190" y="100" as="targetPoint" />
          </mxGeometry>
        </mxCell>
        <mxCell id="s7leAN4v9x_5SHNfB_ql-4" value="Actor" style="shape=umlActor;verticalLabelPosition=bottom;verticalAlign=top;html=1;outlineConnect=0;" vertex="1" parent="1">
          <mxGeometry x="30" y="70" width="30" height="60" as="geometry" />
        </mxCell>
        <mxCell id="s7leAN4v9x_5SHNfB_ql-6" value="Feed" style="rounded=0;whiteSpace=wrap;html=1;" vertex="1" parent="1">
          <mxGeometry x="180" y="70" width="120" height="60" as="geometry" />
        </mxCell>
        <mxCell id="s7leAN4v9x_5SHNfB_ql-7" style="edgeStyle=orthogonalEdgeStyle;rounded=0;orthogonalLoop=1;jettySize=auto;html=1;entryX=0.222;entryY=0;entryDx=0;entryDy=0;entryPerimeter=0;" edge="1" parent="1" source="s7leAN4v9x_5SHNfB_ql-6" target="s7leAN4v9x_5SHNfB_ql-1">
          <mxGeometry relative="1" as="geometry" />
        </mxCell>
        <mxCell id="s7leAN4v9x_5SHNfB_ql-11" style="edgeStyle=orthogonalEdgeStyle;rounded=0;orthogonalLoop=1;jettySize=auto;html=1;" edge="1" parent="1" source="s7leAN4v9x_5SHNfB_ql-8" target="s7leAN4v9x_5SHNfB_ql-2">
          <mxGeometry relative="1" as="geometry">
            <Array as="points">
              <mxPoint x="670" y="530" />
              <mxPoint x="320" y="530" />
            </Array>
          </mxGeometry>
        </mxCell>
        <mxCell id="s7leAN4v9x_5SHNfB_ql-8" value="exist" style="rhombus;whiteSpace=wrap;html=1;" vertex="1" parent="1">
          <mxGeometry x="630" y="310" width="80" height="80" as="geometry" />
        </mxCell>
        <mxCell id="s7leAN4v9x_5SHNfB_ql-10" style="edgeStyle=orthogonalEdgeStyle;rounded=0;orthogonalLoop=1;jettySize=auto;html=1;entryX=0.5;entryY=0;entryDx=0;entryDy=0;entryPerimeter=0;exitX=1;exitY=0.5;exitDx=0;exitDy=0;" edge="1" parent="1" source="s7leAN4v9x_5SHNfB_ql-8" target="s7leAN4v9x_5SHNfB_ql-4">
          <mxGeometry relative="1" as="geometry">
            <Array as="points">
              <mxPoint x="750" y="350" />
              <mxPoint x="750" y="50" />
              <mxPoint x="45" y="50" />
            </Array>
          </mxGeometry>
        </mxCell>
        <mxCell id="s7leAN4v9x_5SHNfB_ql-12" value="Get feed from feed relation" style="rounded=0;whiteSpace=wrap;html=1;" vertex="1" parent="1">
          <mxGeometry x="30" y="500" width="120" height="60" as="geometry" />
        </mxCell>
        <mxCell id="s7leAN4v9x_5SHNfB_ql-14" style="edgeStyle=orthogonalEdgeStyle;rounded=0;orthogonalLoop=1;jettySize=auto;html=1;entryX=0.429;entryY=1.002;entryDx=0;entryDy=0;entryPerimeter=0;" edge="1" parent="1" source="s7leAN4v9x_5SHNfB_ql-12" target="s7leAN4v9x_5SHNfB_ql-1">
          <mxGeometry relative="1" as="geometry">
            <Array as="points">
              <mxPoint x="464" y="530" />
            </Array>
          </mxGeometry>
        </mxCell>
        <mxCell id="s7leAN4v9x_5SHNfB_ql-16" style="edgeStyle=orthogonalEdgeStyle;rounded=0;orthogonalLoop=1;jettySize=auto;html=1;" edge="1" parent="1" source="s7leAN4v9x_5SHNfB_ql-15">
          <mxGeometry relative="1" as="geometry">
            <mxPoint x="130" y="670" as="targetPoint" />
          </mxGeometry>
        </mxCell>
        <mxCell id="s7leAN4v9x_5SHNfB_ql-15" value="Actor" style="shape=umlActor;verticalLabelPosition=bottom;verticalAlign=top;html=1;outlineConnect=0;" vertex="1" parent="1">
          <mxGeometry x="30" y="640" width="30" height="60" as="geometry" />
        </mxCell>
        <mxCell id="s7leAN4v9x_5SHNfB_ql-20" style="edgeStyle=orthogonalEdgeStyle;rounded=0;orthogonalLoop=1;jettySize=auto;html=1;" edge="1" parent="1" source="s7leAN4v9x_5SHNfB_ql-18">
          <mxGeometry relative="1" as="geometry">
            <mxPoint x="280" y="670" as="targetPoint" />
          </mxGeometry>
        </mxCell>
        <mxCell id="s7leAN4v9x_5SHNfB_ql-18" value="add post" style="rounded=0;whiteSpace=wrap;html=1;" vertex="1" parent="1">
          <mxGeometry x="130" y="640" width="120" height="60" as="geometry" />
        </mxCell>
        <mxCell id="s7leAN4v9x_5SHNfB_ql-21" value="List" style="swimlane;fontStyle=0;childLayout=stackLayout;horizontal=1;startSize=30;horizontalStack=0;resizeParent=1;resizeParentMax=0;resizeLast=0;collapsible=1;marginBottom=0;whiteSpace=wrap;html=1;" vertex="1" parent="1">
          <mxGeometry x="300" y="640" width="140" height="150" as="geometry" />
        </mxCell>
        <mxCell id="s7leAN4v9x_5SHNfB_ql-22" value="Item 1" style="text;strokeColor=none;fillColor=none;align=left;verticalAlign=middle;spacingLeft=4;spacingRight=4;overflow=hidden;points=[[0,0.5],[1,0.5]];portConstraint=eastwest;rotatable=0;whiteSpace=wrap;html=1;" vertex="1" parent="s7leAN4v9x_5SHNfB_ql-21">
          <mxGeometry y="30" width="140" height="30" as="geometry" />
        </mxCell>
        <mxCell id="s7leAN4v9x_5SHNfB_ql-23" value="Item 2" style="text;strokeColor=none;fillColor=none;align=left;verticalAlign=middle;spacingLeft=4;spacingRight=4;overflow=hidden;points=[[0,0.5],[1,0.5]];portConstraint=eastwest;rotatable=0;whiteSpace=wrap;html=1;" vertex="1" parent="s7leAN4v9x_5SHNfB_ql-21">
          <mxGeometry y="60" width="140" height="30" as="geometry" />
        </mxCell>
        <mxCell id="s7leAN4v9x_5SHNfB_ql-27" value="Item 2" style="text;strokeColor=none;fillColor=none;align=left;verticalAlign=middle;spacingLeft=4;spacingRight=4;overflow=hidden;points=[[0,0.5],[1,0.5]];portConstraint=eastwest;rotatable=0;whiteSpace=wrap;html=1;" vertex="1" parent="s7leAN4v9x_5SHNfB_ql-21">
          <mxGeometry y="90" width="140" height="30" as="geometry" />
        </mxCell>
        <mxCell id="s7leAN4v9x_5SHNfB_ql-24" value="Item 3" style="text;strokeColor=none;fillColor=none;align=left;verticalAlign=middle;spacingLeft=4;spacingRight=4;overflow=hidden;points=[[0,0.5],[1,0.5]];portConstraint=eastwest;rotatable=0;whiteSpace=wrap;html=1;" vertex="1" parent="s7leAN4v9x_5SHNfB_ql-21">
          <mxGeometry y="120" width="140" height="30" as="geometry" />
        </mxCell>
        <mxCell id="s7leAN4v9x_5SHNfB_ql-25" style="edgeStyle=orthogonalEdgeStyle;rounded=0;orthogonalLoop=1;jettySize=auto;html=1;" edge="1" parent="1" source="s7leAN4v9x_5SHNfB_ql-22" target="s7leAN4v9x_5SHNfB_ql-2">
          <mxGeometry relative="1" as="geometry">
            <Array as="points">
              <mxPoint x="470" y="685" />
              <mxPoint x="470" y="570" />
              <mxPoint x="200" y="570" />
            </Array>
          </mxGeometry>
        </mxCell>
        <mxCell id="s7leAN4v9x_5SHNfB_ql-28" style="edgeStyle=orthogonalEdgeStyle;rounded=0;orthogonalLoop=1;jettySize=auto;html=1;entryX=0.855;entryY=1;entryDx=0;entryDy=-4.35;entryPerimeter=0;" edge="1" parent="1" source="s7leAN4v9x_5SHNfB_ql-23" target="s7leAN4v9x_5SHNfB_ql-1">
          <mxGeometry relative="1" as="geometry" />
        </mxCell>
        <mxCell id="s7leAN4v9x_5SHNfB_ql-29" style="edgeStyle=orthogonalEdgeStyle;rounded=0;orthogonalLoop=1;jettySize=auto;html=1;entryX=0.75;entryY=1;entryDx=0;entryDy=0;" edge="1" parent="1" source="s7leAN4v9x_5SHNfB_ql-27" target="s7leAN4v9x_5SHNfB_ql-12">
          <mxGeometry relative="1" as="geometry">
            <Array as="points">
              <mxPoint x="520" y="745" />
              <mxPoint x="520" y="600" />
              <mxPoint x="120" y="600" />
            </Array>
          </mxGeometry>
        </mxCell>
      </root>
    </mxGraphModel>
  </diagram>
</mxfile>
